<svg version="1.1" id="Layer_1" xmlns="http://www.w3.org/2000/svg" x="0" y="0" viewBox="0 0 2915 500" xml:space="preserve"><style>.st1{fill:#6db33f}</style><circle class="st1" cx="248.8" cy="243.3" r="54.3"/><path class="st1" d="M248.5 397.5c-63.2 0-122.7-15.8-167.5-44.5-45.5-29-70.5-67.9-70.5-109.4s25-80.3 70.5-109.4c44.8-28.7 104.3-44.5 167.5-44.5s122.7 15.8 167.5 44.5c45.4 29.1 70.5 67.9 70.5 109.4S461.5 324 416 353c-44.8 28.7-104.3 44.5-167.5 44.5zm0-298.8c-126.3 0-229 65-229 144.9s102.7 144.9 229 144.9 229-65 229-144.9-102.7-144.9-229-144.9z"/><path class="st1" d="M183.8 463.8c-19.7 0-38.1-4.7-54.3-14.1C93.6 429 72.4 387.9 70 334c-2.4-53.1 13.7-112.6 45.3-167.3l3.9 2.2-3.9-2.2c31.6-54.7 75-98.4 122.3-122.9 47.9-24.8 94.1-27.1 130-6.3 35.9 20.7 57.1 61.8 59.5 115.7 2.4 53.1-13.7 112.6-45.3 167.3s-75 98.4-122.3 122.9c-26.2 13.6-51.9 20.4-75.7 20.4zM313.1 32.4c-22.3 0-46.6 6.5-71.5 19.4-45.7 23.7-87.9 66.1-118.6 119.4-30.8 53.3-46.4 111-44.1 162.4 2.3 50.7 21.9 89.2 55 108.3 33.2 19.2 76.3 16.8 121.3-6.5 45.7-23.7 87.9-66.1 118.6-119.4 30.8-53.3 46.4-111 44.1-162.4-2.3-50.7-21.9-89.2-55-108.3-14.8-8.6-31.6-12.9-49.8-12.9z"/><path class="st1" d="M313.2 463.8c-23.8 0-49.4-6.8-75.6-20.4-47.2-24.5-90.7-68.1-122.3-122.9C83.6 265.8 67.6 206.4 70 153.2c2.5-53.9 23.6-95 59.5-115.7s82.1-18.5 130 6.3c47.2 24.5 90.7 68.1 122.3 122.9 31.6 54.7 47.7 114.2 45.3 167.3-2.5 53.9-23.6 95-59.5 115.7-16.4 9.4-34.8 14.1-54.4 14.1zM183.9 32.4c-18.1 0-35 4.3-49.9 12.9-33.2 19.2-52.7 57.6-55 108.3-2.4 51.5 13.3 109.2 44 162.4 30.8 53.3 72.9 95.7 118.6 119.4 45.1 23.4 88.2 25.7 121.3 6.5 33.2-19.2 52.7-57.6 55-108.3 2.3-51.5-13.3-109.1-44.1-162.4S300.9 75.5 255.2 51.8c-24.7-12.9-49-19.4-71.3-19.4z"/><path d="M675.5 150.3H743c11.3 0 21.6 2.3 31 6.8 9.3 4.5 16.7 10.8 22.1 19 5.4 8.1 8.1 17.3 8.1 27.4 0 10.2-2.7 19.3-8.1 27.4-5.4 8.1-12.8 14.5-22.1 19-9.4 4.5-19.7 6.8-31 6.8h-48.6v59.7h-18.9V150.3zm64.1 88.6c13.7 0 24.7-3.1 33-9.4 8.3-6.3 12.5-14.9 12.5-25.9s-4.2-19.6-12.5-25.9c-8.3-6.3-19.3-9.4-33-9.4h-45.2v70.6h45.2zm211.3-10.2c-4.4 7.6-10.6 13.8-18.5 18.6s-16.8 7.8-26.6 8.9l42.3 60.2h-21.5l-42.1-59.7h-36.8v59.7h-18.9V150.3h67.5c11.3 0 21.6 2.3 31 6.8 9.3 4.5 16.7 10.8 22.1 19 5.4 8.1 8.1 17.3 8.1 27.4 0 9.2-2.2 17.6-6.6 25.2zm-103.2 10.2H893c13.7 0 24.7-3.1 33-9.4 8.3-6.3 12.5-14.9 12.5-25.9s-4.2-19.6-12.5-25.9c-8.3-6.3-19.3-9.4-33-9.4h-45.2l-.1 70.6zm165.8 68.8c-13.1-7.8-23.6-18.3-31.3-31.6-7.7-13.2-11.6-27.5-11.6-42.8s3.9-29.5 11.6-42.7c7.7-13.1 18.2-23.6 31.3-31.4 13.1-7.8 27.2-11.7 42.2-11.7 15.2 0 29.2 3.9 42.2 11.7s23.3 18.3 31.1 31.4c7.7 13.1 11.6 27.4 11.6 42.7s-3.9 29.6-11.6 42.8-18.1 23.7-31.1 31.6c-13 7.8-27 11.7-42.2 11.7-15 0-29.1-3.9-42.2-11.7zm75-15.2c10.1-6.3 18.1-14.7 24.1-25.2s8.9-21.8 8.9-34.1c0-12.1-3-23.4-8.9-34-6-10.6-14-18.9-24.1-25.2-10.1-6.2-21-9.3-32.8-9.3s-22.7 3.1-32.8 9.3c-10.1 6.2-18.1 14.6-24.2 25.2-6 10.6-9.1 21.9-9.1 34 0 12.3 3 23.6 9.1 34.1 6 10.5 14.1 18.9 24.2 25.2 10.1 6.3 21 9.4 32.8 9.4 11.8.1 22.7-3.1 32.8-9.4zm80.8 19.1c-9.6-5.2-16.9-11.8-21.9-19.8l13.8-13.5c3.2 6.9 8.3 12.7 15.4 17.2 7 4.5 14.3 6.8 21.9 6.8 9.8 0 17.9-3.7 24.2-11.1 6.3-7.4 9.4-17 9.4-28.8v-112h18.9v112c0 11-2.2 20.8-6.7 29.5-4.4 8.7-10.6 15.5-18.6 20.3s-17 7.3-27.2 7.3c-9.9-.1-19.7-2.7-29.2-7.9zm138.2-143.4v54.7h90.2v17.9h-90.2v57.8h100.1v17.9h-119.2V150.3h119.2v17.9h-100.1zm157.8 139.5c-13.1-7.8-23.6-18.3-31.3-31.6-7.7-13.2-11.6-27.5-11.6-42.8s3.9-29.5 11.6-42.7c7.7-13.1 18.2-23.6 31.3-31.4 13.1-7.8 27.2-11.7 42.2-11.7 11.3 0 22.1 2.2 32.4 6.7 10.3 4.4 19.4 10.7 27.3 18.7l-12.8 13.1c-6.1-6.6-13.3-11.8-21.4-15.5s-16.6-5.6-25.5-5.6c-11.8 0-22.7 3.1-32.8 9.3-10.1 6.2-18.1 14.6-24.2 25.2-6 10.6-9.1 21.9-9.1 34 0 12.3 3 23.6 9.1 34.1 6 10.5 14.1 18.9 24.2 25.2 10.1 6.3 21 9.4 32.8 9.4 8.9 0 17.4-1.9 25.5-5.6s15.3-8.9 21.4-15.5l12.8 13.1c-7.9 7.9-17 14.1-27.3 18.6s-21.1 6.8-32.4 6.8c-15-.1-29.1-4-42.2-11.8zm160.4-139.5h-55.9v-17.9h130.6v17.9h-55.9v148.3h-18.9V168.2h.1zm267.8 71.5c-8.2 9.6-19.1 15.9-32.6 19l40.6 57.8h-34.3l-39.2-55.9h-26.6v55.9h-30V150.3h72.3c11.6 0 22.2 2.3 31.7 7s17 11.2 22.4 19.6c5.4 8.4 8.1 17.9 8.1 28.5-.1 13.3-4.2 24.7-12.4 34.3zm-92.2-6.9h38.7c10.5 0 18.9-2.5 25.3-7.4s9.6-11.6 9.6-20-3.2-15-9.6-20c-6.4-4.9-14.8-7.4-25.3-7.4h-38.7v54.8zm157.2-54.9V218h85.6v27.6h-85.6v43.3h94.8v27.6h-125V150.3h125v27.6h-94.8zM2186.6 285h-79.3l-13.1 31.4h-33.6l69.4-166.1h33.6l69.4 166.1h-33.4l-13-31.4zm-10.4-24.6l-29.3-69.9-29.3 69.9h58.6zm106.4 47.3c-13.4-7.8-24-18.3-31.9-31.6-7.9-13.2-11.8-27.5-11.8-42.8s3.9-29.5 11.8-42.7c7.9-13.1 18.5-23.6 31.9-31.4 13.4-7.8 27.8-11.7 43.3-11.7 11.9 0 23.3 2.4 34.2 7.1 10.9 4.8 20.4 11.3 28.7 19.7l-21.5 20.1c-5.3-6.1-11.6-10.9-18.7-14.3-7.2-3.4-14.7-5.1-22.6-5.1-10 0-19.3 2.7-27.9 8-8.6 5.3-15.5 12.5-20.7 21.4s-7.7 18.6-7.7 28.9c0 10.5 2.6 20.2 7.7 29.1 5.2 8.9 12.1 16.1 20.7 21.4 8.6 5.3 17.9 8 27.9 8 7.9 0 15.4-1.7 22.6-5.1 7.2-3.4 13.5-8.1 19-14.3l21.3 19.8c-8.1 8.5-17.5 15.2-28.4 20s-22.4 7.1-34.5 7.1c-15.6.1-30-3.8-43.4-11.6zm162.3-129.8h-53.2v-27.6h136.4v27.6h-53v138.6h-30.2V177.9zm133.9 129.8c-13.4-7.8-24-18.3-31.9-31.6-7.9-13.2-11.8-27.5-11.8-42.8s3.9-29.5 11.8-42.7c7.9-13.1 18.5-23.6 31.9-31.4 13.4-7.8 27.8-11.7 43.3-11.7s29.9 3.9 43.3 11.7c13.4 7.8 24.1 18.3 32 31.4 8 13.1 12 27.4 12 42.7s-4 29.6-12 42.8-18.7 23.7-32 31.6c-13.4 7.8-27.8 11.7-43.3 11.7-15.5 0-29.9-3.9-43.3-11.7zm71.4-23.9c8.7-5.3 15.6-12.5 20.7-21.4 5.1-8.9 7.6-18.7 7.6-29.1 0-10.3-2.5-20-7.6-28.9s-12-16.1-20.7-21.4c-8.7-5.3-18.1-8-28.1-8s-19.3 2.7-27.9 8c-8.6 5.3-15.5 12.5-20.7 21.4s-7.7 18.6-7.7 28.9c0 10.5 2.6 20.2 7.7 29.1 5.2 8.9 12.1 16.1 20.7 21.4 8.6 5.3 17.9 8 27.9 8s19.4-2.6 28.1-8zm204.1-44.1c-8.2 9.6-19.1 15.9-32.6 19l40.6 57.8H2828l-39.2-55.9h-26.6v55.9h-30V150.3h72.3c11.6 0 22.2 2.3 31.7 7s17 11.2 22.4 19.6c5.4 8.4 8.1 17.9 8.1 28.5-.1 13.3-4.2 24.7-12.4 34.3zm-92.1-6.9h38.7c10.5 0 18.9-2.5 25.3-7.4 6.4-4.9 9.6-11.6 9.6-20s-3.2-15-9.6-20c-6.4-4.9-14.8-7.4-25.3-7.4h-38.7v54.8z" fill="#fff"/></svg>